<svg width="294" height="34" viewBox="0 0 294 34" fill="none" xmlns="http://www.w3.org/2000/svg">
<path d="M1.36302 7.78042C1.63649 3.59646 5.43434 0.544329 9.57914 1.17758L27.9288 3.98107C31.4207 4.51458 34 7.51784 34 11.0503V25.0771C34 29.4107 30.1764 32.7483 25.8826 32.1629L6.60469 29.5343C2.88435 29.027 0.189866 25.7289 0.434763 21.9821L1.36302 7.78042Z" fill="#D78F09"/>
<g clip-path="url(#clip0_33_630)">
<path d="M13.6577 26.1618C11.8486 26.1525 10.0185 25.2244 9.19578 24.5893C8.37302 23.9542 7.99328 23.5913 7.55025 22.9563C7.10723 22.3212 6.70964 21.6206 6.56927 20.3859C6.4289 19.1511 6.50598 15.0333 6.50598 14.7612C6.50598 14.489 6.60091 14.1866 6.60091 14.1866C6.75913 13.7632 6.91736 13.7125 7.13887 13.6169C7.36038 13.5213 8.46795 13.4608 8.75275 13.6725C9.03756 13.8842 9.0692 13.9447 9.16413 14.2773L9.19578 14.7612C9.19578 14.7612 9.03755 18.2388 9.29071 19.6903C9.54387 21.1419 9.85707 21.7353 10.8097 22.5027C11.7623 23.2701 12.5234 23.4274 13.6577 23.4704C14.792 23.5134 15.774 23.1362 16.7589 22.5027C17.7437 21.8693 18.2301 20.673 18.3411 19.6903C18.4521 18.7077 18.4429 16.8184 18.4677 14.7612C18.4677 14.7612 18.4677 14.4588 18.531 14.2168C18.5943 13.9749 19.0057 13.4306 19.8917 13.4608C20.7778 13.4911 21.0626 13.9749 21.1575 14.2471C21.2524 14.5192 21.2524 14.7612 21.2524 14.7612C21.2524 14.7612 21.4107 19.3275 21.1892 20.3254C20.9676 21.3233 20.8392 21.686 20.0816 22.9563C19.6193 23.6094 19.2665 23.9634 18.5943 24.5893C18.0913 24.9414 17.6234 25.2206 17.1703 25.4399C16.0158 25.9987 14.9568 26.1685 13.6577 26.1618Z" fill="#2B3481"/>
<path d="M19.9989 7.10813C21.808 7.11742 23.6382 8.04557 24.4609 8.68062C25.2836 9.31568 25.6634 9.67856 26.1064 10.3136C26.5494 10.9487 26.9471 11.6493 27.0874 12.884C27.2277 14.1188 27.1507 18.2366 27.1507 18.5087C27.1507 18.7809 27.0557 19.0833 27.0557 19.0833C26.8975 19.5067 26.7393 19.5575 26.5178 19.653C26.2962 19.7486 25.1887 19.8091 24.9039 19.5974C24.6191 19.3857 24.5874 19.3252 24.4925 18.9926L24.4609 18.5087C24.4609 18.5087 24.6191 15.0311 24.3659 13.5796C24.1128 12.128 23.7996 11.5346 22.847 10.7672C21.8944 9.99981 21.1332 9.84256 19.9989 9.79952C18.8647 9.75649 17.8826 10.1338 16.8978 10.7672C15.9129 11.4007 15.4266 12.5969 15.3155 13.5796C15.2045 14.5622 15.2138 16.4515 15.1889 18.5087C15.1889 18.5087 15.1889 18.8111 15.1257 19.053C15.0624 19.295 14.651 19.8393 13.7649 19.8091C12.8789 19.7788 12.5941 19.295 12.4992 19.0228C12.4042 18.7506 12.4042 18.5087 12.4042 18.5087C12.4042 18.5087 12.246 13.9424 12.4675 12.9445C12.689 11.9466 12.8174 11.5839 13.5751 10.3136C14.0373 9.66055 14.3902 9.30652 15.0624 8.68062C15.5653 8.32856 16.0332 8.04929 16.4864 7.82996C17.6409 7.27119 18.6999 7.10146 19.9989 7.10813Z" fill="#2B3481"/>
</g>
<path d="M43.38 22.6348V10.0348H46.12V15.3348L50.46 10.0348H53.86L49.16 15.5348L54.26 22.6348H50.88L47.16 17.2548L46.12 18.3548V22.6348H43.38ZM58.4453 15.8348V17.8548H54.0453V15.8348H58.4453ZM60.3308 22.6348V8.35484H62.9508V22.6348H60.3308ZM65.6466 22.6348V13.0948H68.3066V22.6348H65.6466ZM66.9866 11.0548C66.5332 11.0548 66.1799 10.9282 65.9266 10.6748C65.6732 10.4082 65.5466 10.0815 65.5466 9.69484C65.5466 9.30817 65.6732 8.98817 65.9266 8.73484C66.1799 8.46817 66.5332 8.33484 66.9866 8.33484C67.4266 8.33484 67.7732 8.46817 68.0266 8.73484C68.2932 8.98817 68.4266 9.30817 68.4266 9.69484C68.4266 10.0815 68.2999 10.4082 68.0466 10.6748C67.7932 10.9282 67.4399 11.0548 66.9866 11.0548ZM73.6139 22.6348H70.9539V13.0948H73.0339L73.3539 14.3148C73.7939 13.8615 74.2739 13.5148 74.7939 13.2748C75.3272 13.0215 75.9139 12.8948 76.5539 12.8948C77.6072 12.8948 78.4139 13.1815 78.9739 13.7548C79.5339 14.3282 79.8139 15.1615 79.8139 16.2548V22.6348H77.1539V16.5348C77.1539 16.0415 77.0339 15.6548 76.7939 15.3748C76.5539 15.0815 76.2006 14.9348 75.7339 14.9348C75.3872 14.9348 75.0206 15.0348 74.6339 15.2348C74.2606 15.4215 73.9206 15.6815 73.6139 16.0148V22.6348ZM84.923 19.4348V22.6348H82.283V8.35484H84.923V16.8348L88.123 13.0948H91.343L87.663 17.1148L91.523 22.6348H88.383L85.703 18.6548L84.923 19.4348ZM100.919 18.5548H94.5788V18.6348C94.5788 19.3948 94.8454 19.9615 95.3788 20.3348C95.9121 20.7082 96.5988 20.8948 97.4388 20.8948C97.9721 20.8948 98.4388 20.8415 98.8388 20.7348C99.2521 20.6282 99.6254 20.5015 99.9588 20.3548L100.439 22.2148C100.079 22.3882 99.6254 22.5348 99.0788 22.6548C98.5321 22.7882 97.8854 22.8548 97.1388 22.8548C96.4188 22.8548 95.7388 22.7615 95.0988 22.5748C94.4721 22.3748 93.9188 22.0748 93.4388 21.6748C92.9721 21.2748 92.5988 20.7682 92.3188 20.1548C92.0388 19.5415 91.8988 18.8082 91.8988 17.9548C91.8988 17.1948 92.0121 16.5082 92.2388 15.8948C92.4654 15.2682 92.7854 14.7348 93.1988 14.2948C93.6254 13.8548 94.1321 13.5148 94.7188 13.2748C95.3054 13.0215 95.9588 12.8948 96.6788 12.8948C97.9721 12.8948 98.9988 13.2882 99.7588 14.0748C100.532 14.8615 100.919 15.9615 100.919 17.3748V18.5548ZM98.1988 16.7348C98.1988 16.4815 98.1654 16.2348 98.0988 15.9948C98.0454 15.7548 97.9521 15.5482 97.8188 15.3748C97.6854 15.1882 97.5188 15.0415 97.3188 14.9348C97.1188 14.8282 96.8721 14.7748 96.5788 14.7748C96.0454 14.7748 95.6054 14.9548 95.2588 15.3148C94.9121 15.6748 94.7054 16.1615 94.6388 16.7748L98.1988 16.7348ZM102.79 22.6348V13.0948H104.85L105.15 14.8148C105.377 14.3082 105.737 13.8615 106.23 13.4748C106.723 13.0882 107.343 12.8948 108.09 12.8948C108.397 12.8948 108.67 12.9282 108.91 12.9948C109.15 13.0615 109.35 13.1415 109.51 13.2348L109.07 15.3348C108.923 15.2548 108.737 15.1882 108.51 15.1348C108.283 15.0682 108.017 15.0348 107.71 15.0348C107.057 15.0348 106.51 15.2548 106.07 15.6948C105.643 16.1215 105.43 16.8282 105.43 17.8148V22.6348H102.79Z" fill="#D78F09"/>
<defs>
<clipPath id="clip0_33_630">
<rect width="20.6957" height="19.1724" fill="white" transform="translate(6.48486 7.04866)"/>
</clipPath>
</defs>
</svg>
