<svg width="30" height="30" viewBox="0 0 30 30" fill="none" xmlns="http://www.w3.org/2000/svg">
<g clip-path="url(#clip0_25_1187)">
<path d="M10.3976 29.9073C7.77522 29.8928 5.12234 28.4405 3.92969 27.4467C2.73703 26.453 2.18657 25.8852 1.54437 24.8915C0.902163 23.8978 0.325825 22.8015 0.122352 20.8694C-0.0811196 18.9373 0.0306077 12.494 0.0306081 12.0681C0.0306086 11.6423 0.168221 11.1691 0.168221 11.1691C0.397577 10.5066 0.626937 10.4272 0.948037 10.2776C1.26914 10.1281 2.87464 10.0334 3.28749 10.3647C3.70033 10.6959 3.7462 10.7905 3.88382 11.3111L3.92969 12.0681C3.92969 12.0681 3.70032 17.5098 4.0673 19.7811C4.43428 22.0524 4.88828 22.981 6.26914 24.1817C7.65 25.3826 8.75336 25.6286 10.3976 25.6959C12.0418 25.7633 13.4654 25.1729 14.893 24.1817C16.3206 23.1906 17.0256 21.3187 17.1866 19.7811C17.3475 18.2435 17.3341 15.2871 17.3701 12.0681C17.3701 12.0681 17.3701 11.595 17.4618 11.2164C17.5536 10.8379 18.1499 9.98613 19.4343 10.0334C20.7187 10.0808 21.1316 10.8379 21.2692 11.2637C21.4068 11.6896 21.4068 12.0681 21.4068 12.0681C21.4068 12.0681 21.6361 19.2133 21.315 20.7748C20.9939 22.3363 20.8078 22.9038 19.7095 24.8915C19.0395 25.9134 18.528 26.4674 17.5536 27.4467C16.8245 27.9977 16.1462 28.4346 15.4894 28.7778C13.8158 29.6521 12.2807 29.9178 10.3976 29.9073Z" fill="#D78F09"/>
<path d="M19.5897 0.0930675C22.2121 0.107608 24.865 1.55993 26.0576 2.55363C27.2503 3.54734 27.8007 4.11516 28.4429 5.10885C29.0851 6.10254 29.6616 7.19882 29.8649 9.13094C30.0684 11.063 29.9567 17.5063 29.9567 17.9322C29.9567 18.358 29.8191 18.8312 29.8191 18.8312C29.5897 19.4937 29.3604 19.5732 29.0393 19.7227C28.7182 19.8722 27.1127 19.9669 26.6998 19.6356C26.287 19.3044 26.2411 19.2098 26.1035 18.6893L26.0576 17.9322C26.0576 17.9322 26.2871 12.4905 25.92 10.2192C25.553 7.948 25.0991 7.01941 23.7182 5.81862C22.3373 4.61784 21.2339 4.37177 19.5897 4.30443C17.9456 4.23709 16.5219 4.82742 15.0943 5.81862C13.6667 6.80982 12.9617 8.68169 12.8007 10.2192C12.6398 11.7568 12.6532 14.7132 12.6172 17.9322C12.6172 17.9322 12.6172 18.4054 12.5255 18.7839C12.4338 19.1625 11.8374 20.0142 10.553 19.9669C9.26862 19.9196 8.85581 19.1625 8.7182 18.7366C8.58058 18.3107 8.58058 17.9322 8.58058 17.9322C8.58058 17.9322 8.35123 10.7871 8.67233 9.22557C8.99343 7.66404 9.17954 7.09651 10.2778 5.10885C10.9479 4.08697 11.4594 3.533 12.4338 2.55363C13.1628 2.00274 13.8411 1.56576 14.498 1.22256C16.1716 0.348221 17.7066 0.0826256 19.5897 0.0930675Z" fill="#D78F09"/>
</g>
<defs>
<clipPath id="clip0_25_1187">
<rect width="30" height="30" fill="white"/>
</clipPath>
</defs>
</svg>
