<svg width="164" height="162" viewBox="0 0 164 162" fill="none" xmlns="http://www.w3.org/2000/svg">
<path d="M37.2387 17.6832C37.8602 8.17395 46.4919 1.23714 55.9122 2.67639L117.201 12.0403C125.138 13.2528 131 20.0786 131 28.1072V77.275C131 87.1243 122.31 94.71 112.551 93.3794L48.0111 84.5793C39.5555 83.4264 33.4315 75.9305 33.9881 67.4149L37.2387 17.6832Z" fill="#D78F09"/>
<g clip-path="url(#clip0_23_629)">
<path d="M72.3661 75.4074C67.1517 75.3807 61.8767 72.7055 59.5052 70.8749C57.1337 69.0445 56.0392 67.9985 54.7622 66.1681C53.4853 64.3377 52.3393 62.3183 51.9347 58.7592C51.5301 55.2002 51.7523 43.3313 51.7523 42.5468C51.7523 41.7624 52.0259 40.8907 52.0259 40.8907C52.482 39.6705 52.938 39.5242 53.5765 39.2486C54.215 38.9731 57.4074 38.7988 58.2283 39.409C59.0492 40.0191 59.1404 40.1934 59.414 41.1522L59.5052 42.5468C59.5052 42.5468 59.0491 52.5706 59.7789 56.7545C60.5085 60.9383 61.4113 62.6488 64.157 64.8606C66.9027 67.0727 69.0966 67.5259 72.3661 67.6499C75.6355 67.774 78.4661 66.6865 81.3048 64.8606C84.1435 63.0349 85.5452 59.5867 85.8654 56.7545C86.1853 53.9222 86.1587 48.4764 86.2302 42.5468C86.2302 42.5468 86.2302 41.6752 86.4126 40.9779C86.595 40.2806 87.7808 38.7117 90.3347 38.7988C92.8886 38.886 93.7095 40.2806 93.9832 41.0651C94.2568 41.8495 94.2568 42.5468 94.2568 42.5468C94.2568 42.5468 94.7128 55.7085 94.0744 58.5849C93.4359 61.4613 93.0658 62.5067 90.882 66.1681C89.5496 68.0505 88.5326 69.071 86.595 70.8749C85.1453 71.8898 83.7967 72.6947 82.4905 73.3268C79.1628 74.9374 76.1105 75.4267 72.3661 75.4074Z" fill="#2B3481"/>
<path d="M90.6441 20.4881C95.8585 20.5149 101.134 23.1901 103.505 25.0206C105.876 26.851 106.971 27.897 108.248 29.7274C109.525 31.5579 110.671 33.5773 111.075 37.1363C111.48 40.6953 111.258 52.5642 111.258 53.3486C111.258 54.1331 110.984 55.0047 110.984 55.0047C110.528 56.225 110.072 56.3715 109.434 56.6469C108.795 56.9223 105.603 57.0967 104.782 56.4865C103.961 55.8764 103.87 55.702 103.596 54.7433L103.505 53.3486C103.505 53.3486 103.961 43.3249 103.231 39.141C102.502 34.9573 101.599 33.2468 98.8532 31.0349C96.1075 28.823 93.9135 28.3697 90.6441 28.2457C87.3749 28.1216 84.5441 29.209 81.7054 31.0349C78.8668 32.8607 77.465 36.3088 77.1449 39.141C76.8249 41.9733 76.8515 47.4191 76.78 53.3486C76.78 53.3486 76.78 54.2203 76.5976 54.9176C76.4152 55.6149 75.2294 57.1838 72.6755 57.0967C70.1216 57.0095 69.3008 55.6149 69.0271 54.8304C68.7535 54.0459 68.7535 53.3486 68.7535 53.3486C68.7535 53.3486 68.2975 40.187 68.9359 37.3106C69.5744 34.4342 69.9445 33.3888 72.1283 29.7274C73.4607 27.8451 74.4777 26.8246 76.4152 25.0206C77.8649 24.0058 79.2135 23.2009 80.5197 22.5687C83.8474 20.9581 86.8997 20.4689 90.6441 20.4881Z" fill="#2B3481"/>
</g>
<path d="M50.5451 115.105H56.0783V136.187H66.3369V140.549H50.5451V115.105ZM69.5185 140.549V121.284H74.8901V140.549H69.5185ZM72.2245 117.165C71.309 117.165 70.5955 116.909 70.0839 116.397C69.5723 115.859 69.3165 115.199 69.3165 114.418C69.3165 113.637 69.5723 112.991 70.0839 112.479C70.5955 111.941 71.309 111.672 72.2245 111.672C73.113 111.672 73.8131 111.941 74.3247 112.479C74.8632 112.991 75.1324 113.637 75.1324 114.418C75.1324 115.199 74.8766 115.859 74.3651 116.397C73.8535 116.909 73.1399 117.165 72.2245 117.165ZM85.6078 140.549H80.2362V121.284H84.4366L85.0828 123.748C85.9713 122.832 86.9407 122.132 87.9908 121.648C89.0678 121.136 90.2525 120.88 91.5449 120.88C93.672 120.88 95.301 121.459 96.4319 122.617C97.5628 123.775 98.1282 125.458 98.1282 127.665V140.549H92.7566V128.231C92.7566 127.235 92.5142 126.454 92.0296 125.888C91.5449 125.296 90.8314 125 89.889 125C89.1889 125 88.4485 125.202 87.6676 125.606C86.9137 125.983 86.2271 126.508 85.6078 127.181V140.549ZM108.446 134.087V140.549H103.114V111.712H108.446V128.837L114.908 121.284H121.41L113.979 129.402L121.774 140.549H115.433L110.021 132.512L108.446 134.087ZM140.748 132.31H127.945V132.472C127.945 134.006 128.483 135.151 129.56 135.905C130.637 136.659 132.024 137.036 133.72 137.036C134.797 137.036 135.74 136.928 136.547 136.712C137.382 136.497 138.136 136.241 138.809 135.945L139.778 139.701C139.051 140.051 138.136 140.347 137.032 140.59C135.928 140.859 134.622 140.994 133.114 140.994C131.66 140.994 130.287 140.805 128.995 140.428C127.729 140.024 126.612 139.418 125.642 138.611C124.7 137.803 123.946 136.78 123.381 135.541C122.815 134.303 122.533 132.822 122.533 131.098C122.533 129.564 122.761 128.177 123.219 126.938C123.677 125.673 124.323 124.596 125.158 123.707C126.019 122.819 127.043 122.132 128.227 121.648C129.412 121.136 130.731 120.88 132.185 120.88C134.797 120.88 136.87 121.675 138.405 123.263C139.967 124.852 140.748 127.073 140.748 129.927V132.31ZM135.255 128.635C135.255 128.123 135.188 127.625 135.053 127.14C134.945 126.656 134.757 126.238 134.488 125.888C134.218 125.511 133.882 125.215 133.478 125C133.074 124.784 132.576 124.677 131.983 124.677C130.906 124.677 130.018 125.04 129.318 125.767C128.618 126.494 128.2 127.477 128.066 128.716L135.255 128.635ZM144.526 140.549V121.284H148.686L149.292 124.758C149.75 123.734 150.477 122.832 151.473 122.051C152.469 121.271 153.721 120.88 155.229 120.88C155.848 120.88 156.4 120.948 156.885 121.082C157.37 121.217 157.774 121.378 158.097 121.567L157.208 125.808C156.912 125.646 156.535 125.511 156.077 125.404C155.62 125.269 155.081 125.202 154.462 125.202C153.142 125.202 152.038 125.646 151.15 126.535C150.288 127.396 149.857 128.823 149.857 130.816V140.549H144.526Z" fill="#D78F09"/>
<path d="M4.74348 139.895V96.5849H14.1617V114.803L29.0796 96.5849H40.7664L24.6111 115.49L42.1414 139.895H30.5233L17.7365 121.402L14.1617 125.183V139.895H4.74348Z" fill="#D78F09"/>
<defs>
<clipPath id="clip0_23_629">
<rect width="59.6522" height="55.2615" fill="white" transform="translate(51.6914 20.3167)"/>
</clipPath>
</defs>
</svg>
